<?xml version="1.0" encoding="utf-8"?>
<!-- Generator: Adobe Illustrator 16.0.0, SVG Export Plug-In . SVG Version: 6.00 Build 0)  -->
<!DOCTYPE svg PUBLIC "-//W3C//DTD SVG 1.1//EN" "http://www.w3.org/Graphics/SVG/1.1/DTD/svg11.dtd">
<svg version="1.1" id="Layer_1" xmlns="http://www.w3.org/2000/svg" xmlns:xlink="http://www.w3.org/1999/xlink" x="0px" y="0px"
	 width="130.39px" height="130.39px" viewBox="0 0 130.39 130.39" enable-background="new 0 0 130.39 130.39" xml:space="preserve">
<path fill="#FFFFFF" d="M13.312,58.854c-0.036,0.055-0.06,0.115-0.094,0.171c-0.094,0.157-0.188,0.315-0.259,0.485
	c-0.032,0.076-0.047,0.159-0.073,0.237c-0.054,0.157-0.111,0.312-0.146,0.477c-0.049,0.247-0.075,0.5-0.075,0.755
	s0.026,0.508,0.075,0.755c0.034,0.167,0.093,0.323,0.147,0.481c0.025,0.077,0.04,0.158,0.071,0.232
	c0.071,0.172,0.166,0.33,0.261,0.488c0.032,0.055,0.056,0.115,0.092,0.169c0.138,0.205,0.295,0.396,0.468,0.571
	c0.002,0.002,0.003,0.004,0.005,0.006L50.03,99.924c1.492,1.492,3.911,1.492,5.401,0c1.492-1.492,1.492-3.91,0-5.402L25.708,64.799
	h87.577c2.109,0,3.82-1.71,3.82-3.82c0-2.11-1.711-3.821-3.82-3.821H25.708l29.724-29.723c1.492-1.491,1.492-3.91,0-5.401
	c-0.746-0.746-1.724-1.119-2.701-1.119s-1.955,0.373-2.7,1.119L13.786,58.277C13.61,58.453,13.451,58.647,13.312,58.854z"/>
</svg>
