<?xml version="1.0" encoding="utf-8"?>
<!-- Generator: Adobe Illustrator 16.0.0, SVG Export Plug-In . SVG Version: 6.00 Build 0)  -->
<!DOCTYPE svg PUBLIC "-//W3C//DTD SVG 1.1//EN" "http://www.w3.org/Graphics/SVG/1.1/DTD/svg11.dtd">
<svg version="1.1" id="Layer_1" xmlns="http://www.w3.org/2000/svg" xmlns:xlink="http://www.w3.org/1999/xlink" x="0px" y="0px"
	 width="130.391px" height="130.391px" viewBox="0 0 130.391 130.391" enable-background="new 0 0 130.391 130.391"
	 xml:space="preserve">
<path fill="#FFFFFF" d="M116.459,63.104c0.036-0.056,0.061-0.115,0.095-0.171c0.094-0.157,0.188-0.315,0.259-0.485
	c0.032-0.076,0.047-0.159,0.072-0.237c0.055-0.156,0.111-0.312,0.146-0.477c0.049-0.247,0.075-0.5,0.075-0.755
	s-0.026-0.508-0.075-0.755c-0.034-0.167-0.093-0.323-0.147-0.481c-0.024-0.077-0.039-0.158-0.07-0.232
	c-0.071-0.172-0.166-0.329-0.261-0.487c-0.032-0.056-0.057-0.115-0.093-0.169c-0.138-0.205-0.295-0.396-0.468-0.571
	c-0.002-0.002-0.003-0.004-0.005-0.006L79.741,22.034c-1.492-1.491-3.911-1.492-5.401,0c-1.491,1.492-1.491,3.91,0,5.402
	l29.725,29.723H16.486c-2.11,0-3.82,1.71-3.82,3.82c0,2.109,1.71,3.82,3.82,3.82h87.577L74.34,94.522c-1.491,1.491-1.491,3.91,0,5.4
	c0.746,0.746,1.725,1.119,2.701,1.119c0.978,0,1.955-0.373,2.7-1.119l36.244-36.242C116.161,63.505,116.32,63.311,116.459,63.104z"
	/>
</svg>
